 <svg version="1.0" xmlns="http://www.w3.org/2000/svg" width="700.000000pt" height="700.000000pt" viewBox="0 0 700.000000 700.000000" preserveAspectRatio="xMidYMid meet">
<metadata>
Created by potrace 1.12, written by Peter Selinger 2001-2015
</metadata>
<g transform="translate(0.000000,700.000000) scale(0.100000,-0.100000)" fill="#000000" stroke="none">
<path d="M2500 6994 c-297 -52 -495 -150 -686 -339 -61 -60 -130 -138 -152
-172 -54 -80 -124 -221 -150 -303 -51 -155 -54 -183 -59 -487 l-5 -293 -483 0
-482 0 -7 -62 c-3 -35 -13 -187 -21 -338 -8 -151 -19 -345 -25 -430 -5 -85
-19 -315 -30 -510 -11 -195 -25 -429 -30 -520 -6 -91 -19 -318 -30 -505 -30
-517 -58 -1010 -71 -1210 -12 -197 -7 -288 21 -410 92 -399 429 -714 833 -780
78 -13 276 -15 1270 -15 647 0 1177 2 1177 5 0 3 -11 27 -24 53 -37 74 -96
238 -122 342 -53 206 -69 515 -39 725 44 311 170 614 359 866 267 355 629 595
1061 704 l130 33 -1 83 c-1 85 -26 542 -44 814 -17 254 -60 1006 -61 1083 l-2
72 -488 0 -489 0 0 243 c0 268 -13 390 -56 522 -131 402 -464 707 -879 806
-66 16 -129 22 -240 25 -82 1 -161 0 -175 -2z m306 -423 c291 -60 516 -269
604 -561 21 -68 23 -101 27 -342 l5 -268 204 0 204 0 -2 -457 -3 -458 -200 0
-200 0 -3 458 -2 457 -790 0 -790 0 -2 -457 -3 -458 -200 0 -200 0 -3 458 -2
457 204 0 204 0 5 263 c5 299 12 339 82 482 80 164 195 279 362 361 161 79
326 101 499 65z"></path>
<path d="M5025 2945 c-226 -35 -451 -129 -640 -265 -106 -76 -286 -264 -357
-370 -147 -223 -222 -436 -250 -717 -10 -101 -9 -140 5 -259 44 -373 173 -641
431 -900 227 -226 488 -361 807 -415 296 -51 647 5 908 143 196 104 388 266
517 437 125 167 229 407 270 621 28 148 24 409 -9 560 -62 289 -200 542 -407
750 -227 226 -507 368 -820 416 -114 17 -345 17 -455 -1z m941 -931 c143 -136
144 -136 126 -159 -15 -20 -651 -680 -952 -989 l-107 -108 -324 367 c-178 201
-325 372 -327 379 -3 15 272 261 292 261 8 0 92 -88 186 -195 95 -107 176
-199 180 -203 4 -5 179 170 390 387 210 218 385 396 387 396 3 0 70 -61 149
-136z"></path>
</g>
</svg>